<mxGraphModel dx="1878" dy="1314" grid="1" gridSize="10" guides="1" tooltips="1" connect="1" arrows="1" fold="1" page="0" pageScale="1" pageWidth="827" pageHeight="1169" math="0" shadow="0"><root><mxCell id="0"/><mxCell id="1" parent="0"/><mxCell id="194" value="" style="whiteSpace=wrap;html=1;strokeColor=none;" parent="1" vertex="1"><mxGeometry x="-930" y="-220" width="1270" height="2220" as="geometry"/></mxCell><mxCell id="390" value="" style="rounded=0;whiteSpace=wrap;html=1;dashed=1;strokeWidth=2;perimeterSpacing=2;strokeColor=#FFB570;" parent="1" vertex="1"><mxGeometry x="-320" y="650" width="280" height="390" as="geometry"/></mxCell><mxCell id="228" value="" style="rounded=0;whiteSpace=wrap;html=1;fillColor=#dae8fc;strokeColor=#6c8ebf;" parent="1" vertex="1"><mxGeometry x="-530" y="-170" width="300" height="140" as="geometry"/></mxCell><mxCell id="229" value="" style="rounded=0;whiteSpace=wrap;html=1;fillColor=#e1d5e7;strokeColor=#9673a6;" parent="1" vertex="1"><mxGeometry x="-230" y="-170" width="110" height="140" as="geometry"/></mxCell><mxCell id="230" value="" style="rounded=0;whiteSpace=wrap;html=1;fillColor=#fff2cc;strokeColor=#d6b656;" parent="1" vertex="1"><mxGeometry x="-120" y="-170" width="170" height="140" as="geometry"/></mxCell><mxCell id="248" value="" style="rounded=0;whiteSpace=wrap;html=1;fillColor=#dae8fc;strokeColor=#6c8ebf;" parent="1" vertex="1"><mxGeometry x="-530" y="60" width="300" height="142" as="geometry"/></mxCell><mxCell id="251" value="" style="rounded=0;whiteSpace=wrap;html=1;fillColor=#e1d5e7;strokeColor=#9673a6;" parent="1" vertex="1"><mxGeometry x="-230" y="60" width="110" height="142" as="geometry"/></mxCell><mxCell id="252" value="" style="rounded=0;whiteSpace=wrap;html=1;fillColor=#fff2cc;strokeColor=#d6b656;" parent="1" vertex="1"><mxGeometry x="-120" y="60" width="170" height="142" as="geometry"/></mxCell><mxCell id="283" style="edgeStyle=none;html=1;exitX=0.5;exitY=1;exitDx=0;exitDy=0;entryX=0.5;entryY=1;entryDx=0;entryDy=0;endArrow=classic;endFill=1;rounded=0;" parent="1" source="275" target="281" edge="1"><mxGeometry relative="1" as="geometry"><Array as="points"><mxPoint x="-490" y="-10"/><mxPoint x="-350" y="-10"/><mxPoint x="-200" y="-10"/></Array></mxGeometry></mxCell><mxCell id="275" value="" style="rounded=0;whiteSpace=wrap;html=1;fillColor=#60a917;strokeColor=#2D7600;fontColor=#ffffff;" parent="1" vertex="1"><mxGeometry x="-510" y="-130" width="40" height="90" as="geometry"/></mxCell><mxCell id="276" value="" style="rounded=0;whiteSpace=wrap;html=1;fillColor=#a20025;strokeColor=#6F0000;fontColor=#ffffff;" parent="1" vertex="1"><mxGeometry x="-460" y="-130" width="40" height="90" as="geometry"/></mxCell><mxCell id="277" value="" style="rounded=0;whiteSpace=wrap;html=1;fillColor=#a20025;strokeColor=#6F0000;fontColor=#ffffff;" parent="1" vertex="1"><mxGeometry x="-410" y="-130" width="40" height="90" as="geometry"/></mxCell><mxCell id="284" style="edgeStyle=none;rounded=0;html=1;exitX=0.5;exitY=1;exitDx=0;exitDy=0;entryX=0.5;entryY=1;entryDx=0;entryDy=0;endArrow=classic;endFill=1;" parent="1" source="278" target="282" edge="1"><mxGeometry relative="1" as="geometry"><Array as="points"><mxPoint x="-340" y="-20"/><mxPoint x="-250" y="-20"/><mxPoint x="-150" y="-20"/></Array></mxGeometry></mxCell><mxCell id="278" value="" style="rounded=0;whiteSpace=wrap;html=1;fillColor=#60a917;strokeColor=#2D7600;fontColor=#ffffff;" parent="1" vertex="1"><mxGeometry x="-360" y="-130" width="40" height="90" as="geometry"/></mxCell><mxCell id="279" value="" style="rounded=0;whiteSpace=wrap;html=1;fillColor=#a20025;strokeColor=#6F0000;fontColor=#ffffff;" parent="1" vertex="1"><mxGeometry x="-310" y="-130" width="40" height="90" as="geometry"/></mxCell><mxCell id="281" value="1" style="rounded=0;whiteSpace=wrap;html=1;fillColor=#60a917;strokeColor=#2D7600;fontColor=#ffffff;" parent="1" vertex="1"><mxGeometry x="-220" y="-130" width="40" height="90" as="geometry"/></mxCell><mxCell id="282" value="1" style="rounded=0;whiteSpace=wrap;html=1;fillColor=#60a917;strokeColor=#2D7600;fontColor=#ffffff;" parent="1" vertex="1"><mxGeometry x="-170" y="-130" width="40" height="90" as="geometry"/></mxCell><mxCell id="286" value="" style="rounded=0;whiteSpace=wrap;html=1;fillColor=#a20025;strokeColor=#6F0000;fontColor=#ffffff;" parent="1" vertex="1"><mxGeometry x="-510" y="102" width="40" height="90" as="geometry"/></mxCell><mxCell id="287" value="" style="rounded=0;whiteSpace=wrap;html=1;fillColor=#a20025;strokeColor=#6F0000;fontColor=#ffffff;" parent="1" vertex="1"><mxGeometry x="-460" y="102" width="40" height="90" as="geometry"/></mxCell><mxCell id="329" style="edgeStyle=none;html=1;exitX=0.5;exitY=1;exitDx=0;exitDy=0;entryX=0.5;entryY=1;entryDx=0;entryDy=0;rounded=0;" parent="1" source="288" target="327" edge="1"><mxGeometry relative="1" as="geometry"><Array as="points"><mxPoint x="-390" y="240"/><mxPoint x="-190" y="240"/><mxPoint x="10" y="240"/></Array></mxGeometry></mxCell><mxCell id="288" value="" style="rounded=0;whiteSpace=wrap;html=1;fillColor=#60a917;strokeColor=#2D7600;fontColor=#ffffff;" parent="1" vertex="1"><mxGeometry x="-410" y="102" width="40" height="90" as="geometry"/></mxCell><mxCell id="289" value="" style="rounded=0;whiteSpace=wrap;html=1;fillColor=#a20025;strokeColor=#6F0000;fontColor=#ffffff;" parent="1" vertex="1"><mxGeometry x="-360" y="102" width="40" height="90" as="geometry"/></mxCell><mxCell id="290" value="" style="rounded=0;whiteSpace=wrap;html=1;fillColor=#a20025;strokeColor=#6F0000;fontColor=#ffffff;" parent="1" vertex="1"><mxGeometry x="-310" y="102" width="40" height="90" as="geometry"/></mxCell><mxCell id="330" style="edgeStyle=none;rounded=0;html=1;exitX=0.5;exitY=1;exitDx=0;exitDy=0;entryX=0.5;entryY=1;entryDx=0;entryDy=0;" parent="1" source="291" target="325" edge="1"><mxGeometry relative="1" as="geometry"><Array as="points"><mxPoint x="-200" y="210"/><mxPoint x="-140" y="210"/><mxPoint x="-90" y="210"/></Array></mxGeometry></mxCell><mxCell id="291" value="1" style="rounded=0;whiteSpace=wrap;html=1;fillColor=#60a917;strokeColor=#2D7600;fontColor=#ffffff;" parent="1" vertex="1"><mxGeometry x="-220" y="102" width="40" height="90" as="geometry"/></mxCell><mxCell id="331" style="edgeStyle=none;rounded=0;html=1;exitX=0.5;exitY=1;exitDx=0;exitDy=0;entryX=0.5;entryY=1;entryDx=0;entryDy=0;" parent="1" source="292" target="326" edge="1"><mxGeometry relative="1" as="geometry"><Array as="points"><mxPoint x="-150" y="220"/><mxPoint x="-90" y="220"/><mxPoint x="-40" y="220"/></Array></mxGeometry></mxCell><mxCell id="292" value="1" style="rounded=0;whiteSpace=wrap;html=1;fillColor=#60a917;strokeColor=#2D7600;fontColor=#ffffff;" parent="1" vertex="1"><mxGeometry x="-170" y="102" width="40" height="90" as="geometry"/></mxCell><mxCell id="293" value="Eden" style="text;html=1;align=center;verticalAlign=middle;resizable=0;points=[];autosize=1;strokeColor=none;" parent="1" vertex="1"><mxGeometry x="-400" y="-160" width="40" height="20" as="geometry"/></mxCell><mxCell id="294" value="S0" style="text;html=1;align=center;verticalAlign=middle;resizable=0;points=[];autosize=1;strokeColor=none;" parent="1" vertex="1"><mxGeometry x="-190" y="-160" width="30" height="20" as="geometry"/></mxCell><mxCell id="295" value="S1" style="text;html=1;align=center;verticalAlign=middle;resizable=0;points=[];autosize=1;strokeColor=none;" parent="1" vertex="1"><mxGeometry x="-60" y="-160" width="30" height="20" as="geometry"/></mxCell><mxCell id="296" value="Eden" style="text;html=1;align=center;verticalAlign=middle;resizable=0;points=[];autosize=1;strokeColor=none;" parent="1" vertex="1"><mxGeometry x="-410" y="72" width="40" height="20" as="geometry"/></mxCell><mxCell id="297" value="S0" style="text;html=1;align=center;verticalAlign=middle;resizable=0;points=[];autosize=1;strokeColor=none;" parent="1" vertex="1"><mxGeometry x="-200" y="72" width="30" height="20" as="geometry"/></mxCell><mxCell id="298" value="S1" style="text;html=1;align=center;verticalAlign=middle;resizable=0;points=[];autosize=1;strokeColor=none;" parent="1" vertex="1"><mxGeometry x="-70" y="72" width="30" height="20" as="geometry"/></mxCell><mxCell id="299" value="" style="rounded=0;whiteSpace=wrap;html=1;fillColor=#dae8fc;strokeColor=#6c8ebf;" parent="1" vertex="1"><mxGeometry x="-530" y="310" width="300" height="142" as="geometry"/></mxCell><mxCell id="300" value="" style="rounded=0;whiteSpace=wrap;html=1;fillColor=#e1d5e7;strokeColor=#9673a6;" parent="1" vertex="1"><mxGeometry x="-230" y="310" width="110" height="142" as="geometry"/></mxCell><mxCell id="301" value="" style="rounded=0;whiteSpace=wrap;html=1;fillColor=#fff2cc;strokeColor=#d6b656;" parent="1" vertex="1"><mxGeometry x="-120" y="310" width="170" height="142" as="geometry"/></mxCell><mxCell id="302" value="" style="rounded=0;whiteSpace=wrap;html=1;fillColor=#a20025;strokeColor=#6F0000;fontColor=#ffffff;" parent="1" vertex="1"><mxGeometry x="-510" y="352" width="40" height="90" as="geometry"/></mxCell><mxCell id="303" value="" style="rounded=0;whiteSpace=wrap;html=1;fillColor=#a20025;strokeColor=#6F0000;fontColor=#ffffff;" parent="1" vertex="1"><mxGeometry x="-460" y="352" width="40" height="90" as="geometry"/></mxCell><mxCell id="342" style="edgeStyle=none;rounded=0;html=1;exitX=0.5;exitY=1;exitDx=0;exitDy=0;entryX=0.5;entryY=1;entryDx=0;entryDy=0;strokeColor=#000000;" parent="1" source="304" target="307" edge="1"><mxGeometry relative="1" as="geometry"><Array as="points"><mxPoint x="-390" y="480"/><mxPoint x="-300" y="480"/><mxPoint x="-200" y="480"/></Array></mxGeometry></mxCell><mxCell id="304" value="" style="rounded=0;whiteSpace=wrap;html=1;fillColor=#60a917;strokeColor=#2D7600;fontColor=#ffffff;" parent="1" vertex="1"><mxGeometry x="-410" y="352" width="40" height="90" as="geometry"/></mxCell><mxCell id="305" value="" style="rounded=0;whiteSpace=wrap;html=1;fillColor=#a20025;strokeColor=#6F0000;fontColor=#ffffff;" parent="1" vertex="1"><mxGeometry x="-360" y="352" width="40" height="90" as="geometry"/></mxCell><mxCell id="306" value="" style="rounded=0;whiteSpace=wrap;html=1;fillColor=#a20025;strokeColor=#6F0000;fontColor=#ffffff;" parent="1" vertex="1"><mxGeometry x="-310" y="352" width="40" height="90" as="geometry"/></mxCell><mxCell id="307" value="1" style="rounded=0;whiteSpace=wrap;html=1;fillColor=#60a917;strokeColor=#2D7600;fontColor=#ffffff;" parent="1" vertex="1"><mxGeometry x="-220" y="352" width="40" height="90" as="geometry"/></mxCell><mxCell id="308" value="2" style="rounded=0;whiteSpace=wrap;html=1;fillColor=#60a917;strokeColor=#2D7600;fontColor=#ffffff;" parent="1" vertex="1"><mxGeometry x="-170" y="352" width="40" height="90" as="geometry"/></mxCell><mxCell id="309" value="Eden" style="text;html=1;align=center;verticalAlign=middle;resizable=0;points=[];autosize=1;strokeColor=none;" parent="1" vertex="1"><mxGeometry x="-410" y="322" width="40" height="20" as="geometry"/></mxCell><mxCell id="310" value="S0" style="text;html=1;align=center;verticalAlign=middle;resizable=0;points=[];autosize=1;strokeColor=none;" parent="1" vertex="1"><mxGeometry x="-200" y="322" width="30" height="20" as="geometry"/></mxCell><mxCell id="311" value="S1" style="text;html=1;align=center;verticalAlign=middle;resizable=0;points=[];autosize=1;strokeColor=none;" parent="1" vertex="1"><mxGeometry x="-70" y="322" width="30" height="20" as="geometry"/></mxCell><mxCell id="325" value="2" style="rounded=0;whiteSpace=wrap;html=1;fillColor=#60a917;strokeColor=#2D7600;fontColor=#ffffff;" parent="1" vertex="1"><mxGeometry x="-110" y="102" width="40" height="90" as="geometry"/></mxCell><mxCell id="326" value="2" style="rounded=0;whiteSpace=wrap;html=1;fillColor=#60a917;strokeColor=#2D7600;fontColor=#ffffff;" parent="1" vertex="1"><mxGeometry x="-60" y="102" width="40" height="90" as="geometry"/></mxCell><mxCell id="327" value="1" style="rounded=0;whiteSpace=wrap;html=1;fillColor=#60a917;strokeColor=#2D7600;fontColor=#ffffff;" parent="1" vertex="1"><mxGeometry x="-10" y="102" width="40" height="90" as="geometry"/></mxCell><mxCell id="332" value="&lt;font color=&quot;#ff0000&quot;&gt;YGC/Minor GC&lt;/font&gt;" style="text;html=1;align=center;verticalAlign=middle;resizable=0;points=[];autosize=1;strokeColor=none;" parent="1" vertex="1"><mxGeometry x="-690" y="10" width="100" height="20" as="geometry"/></mxCell><mxCell id="333" value="" style="endArrow=classic;html=1;exitX=0.66;exitY=-0.1;exitDx=0;exitDy=0;exitPerimeter=0;dashed=1;" parent="1" source="332" edge="1"><mxGeometry width="50" height="50" relative="1" as="geometry"><mxPoint x="-630" as="sourcePoint"/><mxPoint x="-550" y="-100" as="targetPoint"/></mxGeometry></mxCell><mxCell id="334" value="" style="endArrow=classic;html=1;exitX=0.64;exitY=1;exitDx=0;exitDy=0;exitPerimeter=0;dashed=1;" parent="1" source="332" edge="1"><mxGeometry width="50" height="50" relative="1" as="geometry"><mxPoint x="-620" y="10" as="sourcePoint"/><mxPoint x="-550" y="131" as="targetPoint"/></mxGeometry></mxCell><mxCell id="343" style="edgeStyle=none;rounded=0;html=1;exitX=0.5;exitY=1;exitDx=0;exitDy=0;entryX=0.25;entryY=1;entryDx=0;entryDy=0;strokeColor=#000000;" parent="1" source="335" target="308" edge="1"><mxGeometry relative="1" as="geometry"><Array as="points"><mxPoint x="-90" y="480"/><mxPoint x="-130" y="480"/><mxPoint x="-160" y="480"/></Array></mxGeometry></mxCell><mxCell id="335" value="1" style="rounded=0;whiteSpace=wrap;html=1;fillColor=#60a917;strokeColor=#2D7600;fontColor=#ffffff;" parent="1" vertex="1"><mxGeometry x="-110" y="352" width="40" height="90" as="geometry"/></mxCell><mxCell id="336" value="15" style="rounded=0;whiteSpace=wrap;html=1;fillColor=#60a917;strokeColor=#2D7600;fontColor=#ffffff;" parent="1" vertex="1"><mxGeometry x="-60" y="352" width="40" height="90" as="geometry"/></mxCell><mxCell id="337" value="15" style="rounded=0;whiteSpace=wrap;html=1;fillColor=#60a917;strokeColor=#2D7600;fontColor=#ffffff;" parent="1" vertex="1"><mxGeometry x="-10" y="352" width="40" height="90" as="geometry"/></mxCell><mxCell id="339" value="" style="rounded=0;whiteSpace=wrap;html=1;fillColor=#1ba1e2;strokeColor=#006EAF;fontColor=#ffffff;" parent="1" vertex="1"><mxGeometry x="50" y="310" width="240" height="142" as="geometry"/></mxCell><mxCell id="340" value="16" style="rounded=0;whiteSpace=wrap;html=1;fillColor=#60a917;strokeColor=#2D7600;fontColor=#ffffff;" parent="1" vertex="1"><mxGeometry x="70" y="352" width="40" height="90" as="geometry"/></mxCell><mxCell id="341" value="16" style="rounded=0;whiteSpace=wrap;html=1;fillColor=#60a917;strokeColor=#2D7600;fontColor=#ffffff;" parent="1" vertex="1"><mxGeometry x="130" y="352" width="40" height="90" as="geometry"/></mxCell><mxCell id="344" style="edgeStyle=none;rounded=0;html=1;exitX=0.5;exitY=1;exitDx=0;exitDy=0;entryX=0.5;entryY=1;entryDx=0;entryDy=0;strokeColor=#000000;" parent="1" source="336" target="340" edge="1"><mxGeometry relative="1" as="geometry"><Array as="points"><mxPoint x="-40" y="480"/><mxPoint x="30" y="480"/><mxPoint x="90" y="480"/></Array></mxGeometry></mxCell><mxCell id="345" style="edgeStyle=none;rounded=0;html=1;exitX=0.5;exitY=1;exitDx=0;exitDy=0;strokeColor=#000000;entryX=0.5;entryY=1;entryDx=0;entryDy=0;" parent="1" source="337" target="341" edge="1"><mxGeometry relative="1" as="geometry"><Array as="points"><mxPoint x="10" y="470"/><mxPoint x="80" y="470"/><mxPoint x="150" y="470"/></Array></mxGeometry></mxCell><mxCell id="346" value="Tenured/Old" style="text;html=1;align=center;verticalAlign=middle;resizable=0;points=[];autosize=1;strokeColor=none;" parent="1" vertex="1"><mxGeometry x="130" y="322" width="80" height="20" as="geometry"/></mxCell><mxCell id="348" value="" style="endArrow=classic;html=1;exitX=0.64;exitY=1;exitDx=0;exitDy=0;exitPerimeter=0;dashed=1;" parent="1" source="332" edge="1"><mxGeometry width="50" height="50" relative="1" as="geometry"><mxPoint x="-616" y="40" as="sourcePoint"/><mxPoint x="-550" y="370" as="targetPoint"/></mxGeometry></mxCell><mxCell id="351" value="" style="edgeStyle=none;html=1;" parent="1" source="349" target="350" edge="1"><mxGeometry relative="1" as="geometry"/></mxCell><mxCell id="349" value="新对象申请" style="ellipse;whiteSpace=wrap;html=1;fillColor=#f8cecc;strokeColor=#b85450;" parent="1" vertex="1"><mxGeometry x="-595" y="580" width="90" height="60" as="geometry"/></mxCell><mxCell id="353" value="" style="edgeStyle=none;html=1;entryX=0.5;entryY=0;entryDx=0;entryDy=0;" parent="1" source="350" target="354" edge="1"><mxGeometry relative="1" as="geometry"><mxPoint x="-558.6671404880508" y="860.0071073207619" as="targetPoint"/></mxGeometry></mxCell><mxCell id="359" value="是" style="edgeLabel;html=1;align=center;verticalAlign=middle;resizable=0;points=[];" parent="353" vertex="1" connectable="0"><mxGeometry x="-0.3" y="-2" relative="1" as="geometry"><mxPoint as="offset"/></mxGeometry></mxCell><mxCell id="361" style="edgeStyle=none;html=1;exitX=1;exitY=0.5;exitDx=0;exitDy=0;entryX=0;entryY=0.5;entryDx=0;entryDy=0;" parent="1" source="350" target="360" edge="1"><mxGeometry relative="1" as="geometry"/></mxCell><mxCell id="362" value="否" style="edgeLabel;html=1;align=center;verticalAlign=middle;resizable=0;points=[];" parent="361" vertex="1" connectable="0"><mxGeometry x="0.36" y="3" relative="1" as="geometry"><mxPoint x="-14" y="3" as="offset"/></mxGeometry></mxCell><mxCell id="350" value="Eden放得下？" style="rhombus;whiteSpace=wrap;html=1;fillColor=#fff2cc;strokeColor=#d6b656;" parent="1" vertex="1"><mxGeometry x="-600" y="705" width="100" height="50" as="geometry"/></mxCell><mxCell id="354" value="分配对象内存" style="ellipse;whiteSpace=wrap;html=1;fillColor=#f8cecc;strokeColor=#b85450;" parent="1" vertex="1"><mxGeometry x="-595" y="810" width="90" height="60" as="geometry"/></mxCell><mxCell id="357" value="是" style="edgeStyle=none;html=1;exitX=0.5;exitY=0;exitDx=0;exitDy=0;entryX=0.5;entryY=1;entryDx=0;entryDy=0;" parent="1" source="355" target="354" edge="1"><mxGeometry relative="1" as="geometry"/></mxCell><mxCell id="358" value="否" style="edgeStyle=none;html=1;exitX=0.5;exitY=1;exitDx=0;exitDy=0;entryX=0.5;entryY=0;entryDx=0;entryDy=0;" parent="1" source="355" target="356" edge="1"><mxGeometry relative="1" as="geometry"/></mxCell><mxCell id="355" value="Old放得下？" style="rhombus;whiteSpace=wrap;html=1;fillColor=#fff2cc;strokeColor=#d6b656;" parent="1" vertex="1"><mxGeometry x="-600" y="990" width="100" height="50" as="geometry"/></mxCell><mxCell id="356" value="OOM" style="ellipse;whiteSpace=wrap;html=1;fillColor=#f8cecc;strokeColor=#b85450;" parent="1" vertex="1"><mxGeometry x="-595" y="1080" width="90" height="60" as="geometry"/></mxCell><mxCell id="364" style="edgeStyle=none;html=1;exitX=0.5;exitY=1;exitDx=0;exitDy=0;entryX=0.5;entryY=0;entryDx=0;entryDy=0;" parent="1" source="360" target="363" edge="1"><mxGeometry relative="1" as="geometry"/></mxCell><mxCell id="389" style="edgeStyle=none;rounded=0;html=1;exitX=1;exitY=0.5;exitDx=0;exitDy=0;entryX=0;entryY=0.5;entryDx=0;entryDy=0;" parent="1" source="360" target="375" edge="1"><mxGeometry relative="1" as="geometry"/></mxCell><mxCell id="360" value="YGC" style="rounded=0;whiteSpace=wrap;html=1;fillColor=#dae8fc;strokeColor=#6c8ebf;" parent="1" vertex="1"><mxGeometry x="-450" y="705" width="80" height="50" as="geometry"/></mxCell><mxCell id="365" style="edgeStyle=none;html=1;exitX=0;exitY=0.5;exitDx=0;exitDy=0;entryX=1;entryY=0.5;entryDx=0;entryDy=0;" parent="1" source="363" target="354" edge="1"><mxGeometry relative="1" as="geometry"/></mxCell><mxCell id="367" style="edgeStyle=none;html=1;exitX=0.5;exitY=1;exitDx=0;exitDy=0;entryX=0.5;entryY=0;entryDx=0;entryDy=0;" parent="1" source="363" target="366" edge="1"><mxGeometry relative="1" as="geometry"/></mxCell><mxCell id="368" value="否" style="edgeLabel;html=1;align=center;verticalAlign=middle;resizable=0;points=[];" parent="367" vertex="1" connectable="0"><mxGeometry x="-0.5429" relative="1" as="geometry"><mxPoint y="6" as="offset"/></mxGeometry></mxCell><mxCell id="363" value="Eden放得下？" style="rhombus;whiteSpace=wrap;html=1;fillColor=#fff2cc;strokeColor=#d6b656;" parent="1" vertex="1"><mxGeometry x="-460" y="815" width="100" height="50" as="geometry"/></mxCell><mxCell id="369" style="edgeStyle=none;html=1;exitX=0;exitY=0.5;exitDx=0;exitDy=0;entryX=1;entryY=1;entryDx=0;entryDy=0;rounded=0;" parent="1" source="366" target="354" edge="1"><mxGeometry relative="1" as="geometry"><Array as="points"><mxPoint x="-518" y="925"/></Array></mxGeometry></mxCell><mxCell id="370" value="是" style="edgeLabel;html=1;align=center;verticalAlign=middle;resizable=0;points=[];" parent="369" vertex="1" connectable="0"><mxGeometry x="0.2481" y="1" relative="1" as="geometry"><mxPoint y="16" as="offset"/></mxGeometry></mxCell><mxCell id="373" style="edgeStyle=none;rounded=0;html=1;exitX=0.5;exitY=1;exitDx=0;exitDy=0;entryX=0.5;entryY=0;entryDx=0;entryDy=0;" parent="1" source="366" target="372" edge="1"><mxGeometry relative="1" as="geometry"/></mxCell><mxCell id="392" value="否" style="edgeLabel;html=1;align=center;verticalAlign=middle;resizable=0;points=[];" parent="373" vertex="1" connectable="0"><mxGeometry x="-0.05" y="-1" relative="1" as="geometry"><mxPoint as="offset"/></mxGeometry></mxCell><mxCell id="366" value="Old放得下？" style="rhombus;whiteSpace=wrap;html=1;fillColor=#fff2cc;strokeColor=#d6b656;" parent="1" vertex="1"><mxGeometry x="-460" y="900" width="100" height="50" as="geometry"/></mxCell><mxCell id="374" style="edgeStyle=none;rounded=0;html=1;exitX=0;exitY=0.5;exitDx=0;exitDy=0;entryX=1;entryY=0.5;entryDx=0;entryDy=0;" parent="1" source="372" target="355" edge="1"><mxGeometry relative="1" as="geometry"/></mxCell><mxCell id="372" value="FGC" style="rounded=0;whiteSpace=wrap;html=1;fillColor=#dae8fc;strokeColor=#6c8ebf;" parent="1" vertex="1"><mxGeometry x="-450" y="990" width="80" height="50" as="geometry"/></mxCell><mxCell id="381" value="是" style="edgeStyle=none;rounded=0;html=1;exitX=0.5;exitY=1;exitDx=0;exitDy=0;entryX=0.5;entryY=0;entryDx=0;entryDy=0;" parent="1" source="375" target="377" edge="1"><mxGeometry relative="1" as="geometry"/></mxCell><mxCell id="387" style="edgeStyle=none;rounded=0;html=1;exitX=1;exitY=0.5;exitDx=0;exitDy=0;entryX=1;entryY=0.5;entryDx=0;entryDy=0;" parent="1" source="375" target="380" edge="1"><mxGeometry relative="1" as="geometry"><Array as="points"><mxPoint x="-80" y="730"/><mxPoint x="-80" y="860"/><mxPoint x="-80" y="980"/></Array></mxGeometry></mxCell><mxCell id="388" value="否" style="edgeLabel;html=1;align=center;verticalAlign=middle;resizable=0;points=[];" parent="387" vertex="1" connectable="0"><mxGeometry x="-0.1307" relative="1" as="geometry"><mxPoint as="offset"/></mxGeometry></mxCell><mxCell id="375" value="Survivor区放得下？" style="rhombus;whiteSpace=wrap;html=1;fillColor=#fff2cc;strokeColor=#d6b656;" parent="1" vertex="1"><mxGeometry x="-270" y="705" width="140" height="50" as="geometry"/></mxCell><mxCell id="382" style="edgeStyle=none;rounded=0;html=1;exitX=0.5;exitY=1;exitDx=0;exitDy=0;entryX=0.5;entryY=0;entryDx=0;entryDy=0;" parent="1" source="377" target="379" edge="1"><mxGeometry relative="1" as="geometry"/></mxCell><mxCell id="377" value="放置在S0/S1区域" style="rounded=0;whiteSpace=wrap;html=1;fillColor=#dae8fc;strokeColor=#6c8ebf;" parent="1" vertex="1"><mxGeometry x="-260" y="780" width="120" height="50" as="geometry"/></mxCell><mxCell id="383" style="edgeStyle=none;rounded=0;html=1;exitX=0.5;exitY=1;exitDx=0;exitDy=0;entryX=0.5;entryY=0;entryDx=0;entryDy=0;" parent="1" source="379" target="380" edge="1"><mxGeometry relative="1" as="geometry"/></mxCell><mxCell id="386" value="是" style="edgeLabel;html=1;align=center;verticalAlign=middle;resizable=0;points=[];" parent="383" vertex="1" connectable="0"><mxGeometry x="0.05" y="2" relative="1" as="geometry"><mxPoint x="-2" y="-4" as="offset"/></mxGeometry></mxCell><mxCell id="384" style="edgeStyle=none;rounded=0;html=1;exitX=1;exitY=0.5;exitDx=0;exitDy=0;entryX=1;entryY=0.5;entryDx=0;entryDy=0;" parent="1" source="379" target="377" edge="1"><mxGeometry relative="1" as="geometry"><Array as="points"><mxPoint x="-110" y="885"/><mxPoint x="-110" y="805"/></Array></mxGeometry></mxCell><mxCell id="385" value="否" style="edgeLabel;html=1;align=center;verticalAlign=middle;resizable=0;points=[];" parent="384" vertex="1" connectable="0"><mxGeometry x="0.0154" y="2" relative="1" as="geometry"><mxPoint as="offset"/></mxGeometry></mxCell><mxCell id="379" value="对象存活超过阈值" style="rhombus;whiteSpace=wrap;html=1;fillColor=#fff2cc;strokeColor=#d6b656;" parent="1" vertex="1"><mxGeometry x="-270" y="860" width="140" height="50" as="geometry"/></mxCell><mxCell id="380" value="晋升老年代" style="ellipse;whiteSpace=wrap;html=1;fillColor=#f8cecc;strokeColor=#b85450;" parent="1" vertex="1"><mxGeometry x="-245" y="950" width="90" height="60" as="geometry"/></mxCell><mxCell id="391" value="分配对象的特殊情况" style="text;html=1;align=center;verticalAlign=middle;resizable=0;points=[];autosize=1;strokeColor=none;" parent="1" vertex="1"><mxGeometry x="-840" y="840" width="120" height="20" as="geometry"/></mxCell><mxCell id="393" value="" style="rounded=0;whiteSpace=wrap;html=1;dashed=1;strokeWidth=2;perimeterSpacing=2;strokeColor=#FFB570;" parent="1" vertex="1"><mxGeometry x="-470" y="1295" width="250" height="390" as="geometry"/></mxCell><mxCell id="396" value="" style="edgeStyle=none;html=1;entryX=0.5;entryY=0;entryDx=0;entryDy=0;exitX=0.5;exitY=1;exitDx=0;exitDy=0;" parent="1" source="435" target="404" edge="1"><mxGeometry relative="1" as="geometry"><mxPoint x="-540" y="1570" as="targetPoint"/><mxPoint x="-540" y="1515" as="sourcePoint"/></mxGeometry></mxCell><mxCell id="437" value="N" style="edgeStyle=none;html=1;exitX=0;exitY=0.5;exitDx=0;exitDy=0;entryX=0;entryY=0.5;entryDx=0;entryDy=0;rounded=0;" parent="1" source="404" edge="1"><mxGeometry x="0.0359" y="-10" relative="1" as="geometry"><mxPoint x="-620" y="1581" as="sourcePoint"/><mxPoint x="-640" y="1486" as="targetPoint"/><Array as="points"><mxPoint x="-680" y="1581"/><mxPoint x="-680" y="1486"/></Array><mxPoint as="offset"/></mxGeometry></mxCell><mxCell id="439" style="edgeStyle=none;rounded=0;html=1;exitX=1;exitY=0.5;exitDx=0;exitDy=0;" parent="1" source="404" target="438" edge="1"><mxGeometry relative="1" as="geometry"/></mxCell><mxCell id="404" value="检查是否加载" style="rhombus;whiteSpace=wrap;html=1;fillColor=#fff2cc;strokeColor=#d6b656;" parent="1" vertex="1"><mxGeometry x="-620" y="1556" width="100" height="50" as="geometry"/></mxCell><mxCell id="406" style="edgeStyle=none;html=1;exitX=0.5;exitY=1;exitDx=0;exitDy=0;entryX=0.5;entryY=0;entryDx=0;entryDy=0;startArrow=classic;startFill=1;endArrow=none;endFill=0;" parent="1" source="408" target="412" edge="1"><mxGeometry relative="1" as="geometry"/></mxCell><mxCell id="445" style="edgeStyle=none;rounded=0;html=1;exitX=1;exitY=0.5;exitDx=0;exitDy=0;entryX=0;entryY=0.5;entryDx=0;entryDy=0;startArrow=none;startFill=0;endArrow=classic;endFill=1;" parent="1" source="408" target="444" edge="1"><mxGeometry relative="1" as="geometry"/></mxCell><mxCell id="408" value="YGC" style="rounded=0;whiteSpace=wrap;html=1;fillColor=#e1d5e7;strokeColor=#9673a6;" parent="1" vertex="1"><mxGeometry x="-440" y="1380" width="80" height="50" as="geometry"/></mxCell><mxCell id="454" style="edgeStyle=none;rounded=0;html=1;exitX=1;exitY=0.5;exitDx=0;exitDy=0;entryX=0;entryY=0.5;entryDx=0;entryDy=0;startArrow=none;startFill=0;endArrow=none;endFill=0;" parent="1" source="412" target="447" edge="1"><mxGeometry relative="1" as="geometry"><Array as="points"><mxPoint x="-210" y="1490"/><mxPoint x="-210" y="1405"/></Array></mxGeometry></mxCell><mxCell id="412" value="结果" style="rhombus;whiteSpace=wrap;html=1;fillColor=#fff2cc;strokeColor=#d6b656;" parent="1" vertex="1"><mxGeometry x="-450" y="1465" width="100" height="50" as="geometry"/></mxCell><mxCell id="453" style="edgeStyle=none;rounded=0;html=1;exitX=0.5;exitY=1;exitDx=0;exitDy=0;entryX=0.5;entryY=0;entryDx=0;entryDy=0;startArrow=none;startFill=0;endArrow=classic;endFill=1;" parent="1" source="425" target="451" edge="1"><mxGeometry relative="1" as="geometry"/></mxCell><mxCell id="425" value="将Reference入栈" style="rounded=0;whiteSpace=wrap;html=1;fillColor=#dae8fc;strokeColor=#6c8ebf;" parent="1" vertex="1"><mxGeometry x="-190" y="1465" width="120" height="50" as="geometry"/></mxCell><mxCell id="432" value="TLAB对象分配过程" style="text;html=1;align=center;verticalAlign=middle;resizable=0;points=[];autosize=1;strokeColor=none;" parent="1" vertex="1"><mxGeometry x="-880" y="1485" width="120" height="20" as="geometry"/></mxCell><mxCell id="434" style="edgeStyle=none;html=1;exitX=0.5;exitY=1;exitDx=0;exitDy=0;entryX=0.5;entryY=0;entryDx=0;entryDy=0;" parent="1" source="433" target="435" edge="1"><mxGeometry relative="1" as="geometry"><mxPoint x="-540" y="1465" as="targetPoint"/></mxGeometry></mxCell><mxCell id="433" value="&amp;nbsp;Byte Code" style="rounded=0;whiteSpace=wrap;html=1;fillColor=#dae8fc;strokeColor=#6c8ebf;" parent="1" vertex="1"><mxGeometry x="-610" y="1370" width="80" height="50" as="geometry"/></mxCell><mxCell id="435" value="类加载步骤&lt;br&gt;（加载、解析、初始化）" style="rounded=0;whiteSpace=wrap;html=1;fillColor=#dae8fc;strokeColor=#6c8ebf;" parent="1" vertex="1"><mxGeometry x="-640" y="1465" width="140" height="50" as="geometry"/></mxCell><mxCell id="441" style="edgeStyle=none;rounded=0;html=1;exitX=0.5;exitY=0;exitDx=0;exitDy=0;entryX=0.5;entryY=1;entryDx=0;entryDy=0;" parent="1" source="438" target="412" edge="1"><mxGeometry relative="1" as="geometry"/></mxCell><mxCell id="438" value="TLAB分配" style="rounded=0;whiteSpace=wrap;html=1;fillColor=#f8cecc;strokeColor=#b85450;" parent="1" vertex="1"><mxGeometry x="-440" y="1556" width="80" height="50" as="geometry"/></mxCell><mxCell id="440" value="Y" style="text;html=1;align=center;verticalAlign=middle;resizable=0;points=[];autosize=1;strokeColor=none;" parent="1" vertex="1"><mxGeometry x="-490" y="1556" width="20" height="20" as="geometry"/></mxCell><mxCell id="443" value="N" style="text;html=1;align=center;verticalAlign=middle;resizable=0;points=[];autosize=1;strokeColor=none;" parent="1" vertex="1"><mxGeometry x="-430" y="1445" width="20" height="20" as="geometry"/></mxCell><mxCell id="446" style="edgeStyle=none;rounded=0;html=1;exitX=0.5;exitY=0;exitDx=0;exitDy=0;entryX=0.5;entryY=0;entryDx=0;entryDy=0;startArrow=none;startFill=0;endArrow=classic;endFill=1;" parent="1" source="444" target="408" edge="1"><mxGeometry relative="1" as="geometry"><Array as="points"><mxPoint x="-285" y="1350"/><mxPoint x="-340" y="1350"/><mxPoint x="-400" y="1350"/></Array></mxGeometry></mxCell><mxCell id="448" style="edgeStyle=none;rounded=0;html=1;exitX=1;exitY=0.5;exitDx=0;exitDy=0;entryX=0;entryY=0.5;entryDx=0;entryDy=0;startArrow=none;startFill=0;endArrow=classic;endFill=1;" parent="1" source="444" target="447" edge="1"><mxGeometry relative="1" as="geometry"/></mxCell><mxCell id="444" value="结果" style="rhombus;whiteSpace=wrap;html=1;fillColor=#fff2cc;strokeColor=#d6b656;" parent="1" vertex="1"><mxGeometry x="-335" y="1380" width="100" height="50" as="geometry"/></mxCell><mxCell id="452" style="edgeStyle=none;rounded=0;html=1;exitX=0.5;exitY=1;exitDx=0;exitDy=0;entryX=0.5;entryY=0;entryDx=0;entryDy=0;startArrow=none;startFill=0;endArrow=classic;endFill=1;" parent="1" source="447" target="425" edge="1"><mxGeometry relative="1" as="geometry"/></mxCell><mxCell id="447" value="对象实例化" style="rounded=0;whiteSpace=wrap;html=1;fillColor=#dae8fc;strokeColor=#6c8ebf;" parent="1" vertex="1"><mxGeometry x="-190" y="1380" width="120" height="50" as="geometry"/></mxCell><mxCell id="449" value="Y" style="text;html=1;align=center;verticalAlign=middle;resizable=0;points=[];autosize=1;strokeColor=none;" parent="1" vertex="1"><mxGeometry x="-235" y="1385" width="20" height="20" as="geometry"/></mxCell><mxCell id="451" value="更新PC计数器" style="rounded=0;whiteSpace=wrap;html=1;fillColor=#dae8fc;strokeColor=#6c8ebf;" parent="1" vertex="1"><mxGeometry x="-190" y="1550" width="120" height="50" as="geometry"/></mxCell><mxCell id="455" value="Y" style="text;html=1;align=center;verticalAlign=middle;resizable=0;points=[];autosize=1;strokeColor=none;" parent="1" vertex="1"><mxGeometry x="-340" y="1471" width="20" height="20" as="geometry"/></mxCell><mxCell id="456" value="N" style="text;html=1;align=center;verticalAlign=middle;resizable=0;points=[];autosize=1;strokeColor=none;" parent="1" vertex="1"><mxGeometry x="-380" y="1330" width="20" height="20" as="geometry"/></mxCell></root></mxGraphModel>